<mxfile host="app.diagrams.net" modified="2021-05-13T06:27:17.878Z" agent="5.0 (Macintosh; Intel Mac OS X 10_15_7) AppleWebKit/537.36 (KHTML, like Gecko) Chrome/90.0.4430.93 Safari/537.36" etag="pM0pghZBmEjY7mhucp4X" version="14.6.6" type="github">
  <diagram id="DuHI1rx7rXFCCcmQWFll" name="Page-1">
    <mxGraphModel dx="2125" dy="1977" grid="1" gridSize="10" guides="1" tooltips="1" connect="1" arrows="1" fold="1" page="1" pageScale="1" pageWidth="827" pageHeight="1169" math="0" shadow="0">
      <root>
        <mxCell id="0" />
        <mxCell id="1" parent="0" />
        <mxCell id="NWPypqy2VdpSsYWHa91w-30" value="4.实物兑换" style="edgeStyle=orthogonalEdgeStyle;rounded=0;orthogonalLoop=1;jettySize=auto;html=1;entryX=0;entryY=0.5;entryDx=0;entryDy=0;" edge="1" parent="1" source="NWPypqy2VdpSsYWHa91w-1" target="NWPypqy2VdpSsYWHa91w-8">
          <mxGeometry relative="1" as="geometry" />
        </mxCell>
        <mxCell id="NWPypqy2VdpSsYWHa91w-1" value="积分账户" style="rounded=1;whiteSpace=wrap;html=1;" vertex="1" parent="1">
          <mxGeometry x="80" y="230" width="120" height="60" as="geometry" />
        </mxCell>
        <mxCell id="NWPypqy2VdpSsYWHa91w-11" style="edgeStyle=orthogonalEdgeStyle;rounded=0;orthogonalLoop=1;jettySize=auto;html=1;" edge="1" parent="1" source="NWPypqy2VdpSsYWHa91w-2" target="NWPypqy2VdpSsYWHa91w-8">
          <mxGeometry relative="1" as="geometry" />
        </mxCell>
        <mxCell id="NWPypqy2VdpSsYWHa91w-12" value="配置活动商城" style="edgeLabel;html=1;align=center;verticalAlign=middle;resizable=0;points=[];" vertex="1" connectable="0" parent="NWPypqy2VdpSsYWHa91w-11">
          <mxGeometry x="-0.1" y="-1" relative="1" as="geometry">
            <mxPoint as="offset" />
          </mxGeometry>
        </mxCell>
        <mxCell id="NWPypqy2VdpSsYWHa91w-20" style="edgeStyle=orthogonalEdgeStyle;rounded=0;orthogonalLoop=1;jettySize=auto;html=1;entryX=1;entryY=0.5;entryDx=0;entryDy=0;" edge="1" parent="1" source="NWPypqy2VdpSsYWHa91w-2" target="NWPypqy2VdpSsYWHa91w-19">
          <mxGeometry relative="1" as="geometry" />
        </mxCell>
        <mxCell id="NWPypqy2VdpSsYWHa91w-21" value="1.用户发起活动" style="edgeLabel;html=1;align=center;verticalAlign=middle;resizable=0;points=[];" vertex="1" connectable="0" parent="NWPypqy2VdpSsYWHa91w-20">
          <mxGeometry x="-0.0702" relative="1" as="geometry">
            <mxPoint as="offset" />
          </mxGeometry>
        </mxCell>
        <mxCell id="NWPypqy2VdpSsYWHa91w-2" value="活动" style="rounded=1;whiteSpace=wrap;html=1;" vertex="1" parent="1">
          <mxGeometry x="354" y="78" width="120" height="60" as="geometry" />
        </mxCell>
        <mxCell id="NWPypqy2VdpSsYWHa91w-3" value="" style="shape=curlyBracket;whiteSpace=wrap;html=1;rounded=1;" vertex="1" parent="1">
          <mxGeometry x="474" y="48" width="20" height="120" as="geometry" />
        </mxCell>
        <mxCell id="NWPypqy2VdpSsYWHa91w-4" value="* 活动ID" style="text;html=1;align=left;verticalAlign=middle;resizable=0;points=[];autosize=1;strokeColor=none;" vertex="1" parent="1">
          <mxGeometry x="494" y="48" width="60" height="20" as="geometry" />
        </mxCell>
        <mxCell id="NWPypqy2VdpSsYWHa91w-5" value="* 活动内容" style="text;html=1;align=left;verticalAlign=middle;resizable=0;points=[];autosize=1;strokeColor=none;" vertex="1" parent="1">
          <mxGeometry x="494" y="78" width="70" height="20" as="geometry" />
        </mxCell>
        <mxCell id="NWPypqy2VdpSsYWHa91w-6" value="* 活动奖励" style="text;html=1;align=left;verticalAlign=middle;resizable=0;points=[];autosize=1;strokeColor=none;" vertex="1" parent="1">
          <mxGeometry x="494" y="108" width="70" height="20" as="geometry" />
        </mxCell>
        <mxCell id="NWPypqy2VdpSsYWHa91w-7" value="* 活动有效时间" style="text;html=1;align=left;verticalAlign=middle;resizable=0;points=[];autosize=1;strokeColor=none;" vertex="1" parent="1">
          <mxGeometry x="494" y="138" width="100" height="20" as="geometry" />
        </mxCell>
        <mxCell id="NWPypqy2VdpSsYWHa91w-8" value="活动商城&lt;br&gt;【活动商品表】" style="rounded=1;whiteSpace=wrap;html=1;align=center;" vertex="1" parent="1">
          <mxGeometry x="354" y="230" width="120" height="60" as="geometry" />
        </mxCell>
        <mxCell id="NWPypqy2VdpSsYWHa91w-9" value="" style="shape=singleArrow;direction=south;whiteSpace=wrap;html=1;align=left;" vertex="1" parent="1">
          <mxGeometry x="396" y="-22" width="36" height="100" as="geometry" />
        </mxCell>
        <mxCell id="NWPypqy2VdpSsYWHa91w-10" value="创建活动" style="text;html=1;align=center;verticalAlign=middle;resizable=0;points=[];autosize=1;strokeColor=none;" vertex="1" parent="1">
          <mxGeometry x="384" y="8" width="60" height="20" as="geometry" />
        </mxCell>
        <mxCell id="NWPypqy2VdpSsYWHa91w-14" style="edgeStyle=orthogonalEdgeStyle;rounded=0;orthogonalLoop=1;jettySize=auto;html=1;entryX=1;entryY=0.5;entryDx=0;entryDy=0;dashed=1;" edge="1" parent="1" source="NWPypqy2VdpSsYWHa91w-13" target="NWPypqy2VdpSsYWHa91w-8">
          <mxGeometry relative="1" as="geometry" />
        </mxCell>
        <mxCell id="NWPypqy2VdpSsYWHa91w-15" value="在商品列表里选择" style="edgeLabel;html=1;align=center;verticalAlign=middle;resizable=0;points=[];" vertex="1" connectable="0" parent="NWPypqy2VdpSsYWHa91w-14">
          <mxGeometry x="-0.0115" relative="1" as="geometry">
            <mxPoint as="offset" />
          </mxGeometry>
        </mxCell>
        <mxCell id="NWPypqy2VdpSsYWHa91w-13" value="商品列表" style="rounded=0;whiteSpace=wrap;html=1;align=center;" vertex="1" parent="1">
          <mxGeometry x="650" y="230" width="120" height="60" as="geometry" />
        </mxCell>
        <mxCell id="NWPypqy2VdpSsYWHa91w-16" value="" style="shape=singleArrow;direction=south;whiteSpace=wrap;html=1;align=left;" vertex="1" parent="1">
          <mxGeometry x="690" y="130" width="36" height="100" as="geometry" />
        </mxCell>
        <mxCell id="NWPypqy2VdpSsYWHa91w-17" value="商品录入" style="text;html=1;align=center;verticalAlign=middle;resizable=0;points=[];autosize=1;strokeColor=none;" vertex="1" parent="1">
          <mxGeometry x="678" y="170" width="60" height="20" as="geometry" />
        </mxCell>
        <mxCell id="NWPypqy2VdpSsYWHa91w-18" value="这里记录商品个数" style="whiteSpace=wrap;html=1;shape=mxgraph.basic.cloud_callout;align=center;" vertex="1" parent="1">
          <mxGeometry x="474" y="190" width="90" height="60" as="geometry" />
        </mxCell>
        <mxCell id="NWPypqy2VdpSsYWHa91w-26" style="edgeStyle=orthogonalEdgeStyle;rounded=0;orthogonalLoop=1;jettySize=auto;html=1;entryX=0.5;entryY=0;entryDx=0;entryDy=0;exitX=0.5;exitY=1;exitDx=0;exitDy=0;" edge="1" parent="1" source="NWPypqy2VdpSsYWHa91w-19" target="NWPypqy2VdpSsYWHa91w-1">
          <mxGeometry relative="1" as="geometry" />
        </mxCell>
        <mxCell id="NWPypqy2VdpSsYWHa91w-27" value="3.用户获得积分" style="edgeLabel;html=1;align=center;verticalAlign=middle;resizable=0;points=[];" vertex="1" connectable="0" parent="NWPypqy2VdpSsYWHa91w-26">
          <mxGeometry x="0.0645" y="-1" relative="1" as="geometry">
            <mxPoint as="offset" />
          </mxGeometry>
        </mxCell>
        <mxCell id="NWPypqy2VdpSsYWHa91w-19" value="老用户发起活动" style="rounded=1;whiteSpace=wrap;html=1;align=center;" vertex="1" parent="1">
          <mxGeometry x="80" y="78" width="120" height="60" as="geometry" />
        </mxCell>
        <mxCell id="NWPypqy2VdpSsYWHa91w-24" style="edgeStyle=orthogonalEdgeStyle;rounded=0;orthogonalLoop=1;jettySize=auto;html=1;" edge="1" parent="1" source="NWPypqy2VdpSsYWHa91w-23" target="NWPypqy2VdpSsYWHa91w-19">
          <mxGeometry relative="1" as="geometry" />
        </mxCell>
        <mxCell id="NWPypqy2VdpSsYWHa91w-25" value="2.完成任务" style="edgeLabel;html=1;align=center;verticalAlign=middle;resizable=0;points=[];" vertex="1" connectable="0" parent="NWPypqy2VdpSsYWHa91w-24">
          <mxGeometry x="0.0667" y="-1" relative="1" as="geometry">
            <mxPoint as="offset" />
          </mxGeometry>
        </mxCell>
        <mxCell id="NWPypqy2VdpSsYWHa91w-29" style="edgeStyle=orthogonalEdgeStyle;rounded=0;orthogonalLoop=1;jettySize=auto;html=1;entryX=0.5;entryY=0;entryDx=0;entryDy=0;" edge="1" parent="1" source="NWPypqy2VdpSsYWHa91w-23" target="NWPypqy2VdpSsYWHa91w-28">
          <mxGeometry relative="1" as="geometry" />
        </mxCell>
        <mxCell id="NWPypqy2VdpSsYWHa91w-23" value="拉新用户履约" style="shape=parallelogram;perimeter=parallelogramPerimeter;whiteSpace=wrap;html=1;fixedSize=1;align=center;" vertex="1" parent="1">
          <mxGeometry x="-130" y="78" width="120" height="60" as="geometry" />
        </mxCell>
        <mxCell id="NWPypqy2VdpSsYWHa91w-28" value="领取新用户奖励" style="rounded=1;whiteSpace=wrap;html=1;align=center;" vertex="1" parent="1">
          <mxGeometry x="-130" y="230" width="120" height="60" as="geometry" />
        </mxCell>
        <mxCell id="NWPypqy2VdpSsYWHa91w-31" value="活动维度" style="whiteSpace=wrap;html=1;shape=mxgraph.basic.cloud_callout;align=center;" vertex="1" parent="1">
          <mxGeometry x="200" y="190" width="90" height="60" as="geometry" />
        </mxCell>
      </root>
    </mxGraphModel>
  </diagram>
</mxfile>
